<svg width="1280" height="680" viewBox="0 0 1280 680" xmlns="http://www.w3.org/2000/svg" role="img" aria-label="Enterprise RAG Retrieval and Governance Flow">
<defs><linearGradient id="b" x1="0" y1="0" x2="1" y2="1"><stop offset="0%" stop-color="#0B1F3A"/><stop offset="100%" stop-color="#0E2A4A"/></linearGradient><marker id="a" markerWidth="10" markerHeight="10" refX="9" refY="5" orient="auto"><path d="M0,0 L10,5 L0,10 z" fill="#74C8FF"/></marker><style>.t{font:700 32px 'Segoe UI',Arial;fill:#EAF4FF}.n{font:700 15px 'Segoe UI',Arial;fill:#ECF7FF}.s{font:500 13px 'Segoe UI',Arial;fill:#D6EAFE}</style></defs>
<rect width="1280" height="680" fill="url(#b)"/>
<text class="t" x="40" y="56">Retrieval + Governance Operating Flow</text>
<rect x="60" y="140" width="140" height="90" rx="12" fill="#133A61" stroke="#6FC0F7"/><text class="n" x="84" y="174">Query In</text><text class="s" x="77" y="196">User intent</text>
<rect x="240" y="140" width="150" height="90" rx="12" fill="#133A61" stroke="#6FC0F7"/><text class="n" x="270" y="174">Rewrite</text><text class="s" x="252" y="196">Expansion/route</text>
<rect x="430" y="140" width="170" height="90" rx="12" fill="#18463A" stroke="#59D7B7"/><text class="n" x="457" y="174">Hybrid Recall</text><text class="s" x="451" y="196">Dense + BM25</text>
<rect x="640" y="140" width="150" height="90" rx="12" fill="#18463A" stroke="#59D7B7"/><text class="n" x="675" y="174">Rerank</text><text class="s" x="658" y="196">Cross-encoder</text>
<rect x="830" y="140" width="160" height="90" rx="12" fill="#5A3F1B" stroke="#F2BC73"/><text class="n" x="851" y="174">Context Build</text><text class="s" x="848" y="196">Token budget</text>
<rect x="1030" y="140" width="180" height="90" rx="12" fill="#5A3F1B" stroke="#F2BC73"/><text class="n" x="1066" y="174">Answer Out</text><text class="s" x="1050" y="196">Citations + confidence</text>

<path d="M200 185 L235 185" stroke="#74C8FF" stroke-width="3" marker-end="url(#a)"/><path d="M390 185 L425 185" stroke="#74C8FF" stroke-width="3" marker-end="url(#a)"/><path d="M600 185 L635 185" stroke="#74C8FF" stroke-width="3" marker-end="url(#a)"/><path d="M790 185 L825 185" stroke="#74C8FF" stroke-width="3" marker-end="url(#a)"/><path d="M990 185 L1025 185" stroke="#74C8FF" stroke-width="3" marker-end="url(#a)"/>

<rect x="130" y="330" width="1020" height="260" rx="16" fill="#0E2847" stroke="#3267A1"/>
<text class="n" x="160" y="365">Governance + Evaluation Loop</text>
<text class="s" x="160" y="392">1) Attribution and groundedness scoring</text>
<text class="s" x="160" y="416">2) Policy violations and risk review</text>
<text class="s" x="160" y="440">3) Prompt/retriever tuning and canary release</text>
<text class="s" x="160" y="464">4) Production monitoring by latency, quality, cost</text>
<text class="s" x="160" y="488">5) Feedback loop to orchestrator and retrieval policies</text>
<path d="M1120 230 C1165 300, 1080 340, 1010 350" stroke="#59D7B7" stroke-width="3" fill="none" marker-end="url(#a)"/>
<path d="M200 350 C145 340, 90 310, 80 230" stroke="#59D7B7" stroke-width="3" fill="none" marker-end="url(#a)"/>
</svg>
