<svg width="1440" height="860" viewBox="0 0 1440 860" xmlns="http://www.w3.org/2000/svg" role="img" aria-label="RAG governance flywheel">
  <defs>
    <linearGradient id="bg" x1="0" y1="0" x2="1" y2="1"><stop offset="0%" stop-color="#09182C"/><stop offset="100%" stop-color="#12355C"/></linearGradient>
    <marker id="arr" markerWidth="10" markerHeight="10" refX="9" refY="5" orient="auto"><path d="M0 0 L10 5 L0 10 z" fill="#C9EBFF"/></marker>
    <style>
      .title{font:700 44px 'Segoe UI',Arial,sans-serif;fill:#EAF4FF}
      .n{font:700 16px 'Segoe UI',Arial,sans-serif;fill:#EFF8FF}
      .s{font:500 13px 'Segoe UI',Arial,sans-serif;fill:#CFE6FF}
    </style>
  </defs>
  <rect width="1440" height="860" fill="url(#bg)"/>
  <text class="title" x="88" y="80">Governance and Evaluation Flywheel</text>

  <g transform="translate(720 455)">
    <circle cx="0" cy="0" r="290" fill="#0F2A4A" stroke="#3F8DD6" stroke-width="2"/>
    <circle cx="0" cy="0" r="120" fill="#123A63" stroke="#69B8F2"/>
    <text class="n" x="0" y="-6" text-anchor="middle">CONTROL</text>
    <text class="n" x="0" y="18" text-anchor="middle">CENTER</text>

    <circle cx="0" cy="-230" r="64" fill="#153C64" stroke="#66B2F0"/>
    <text class="n" x="0" y="-224" text-anchor="middle">Log</text>

    <circle cx="198" cy="-116" r="64" fill="#14505D" stroke="#58C7CF"/>
    <text class="n" x="198" y="-110" text-anchor="middle">Evaluate</text>

    <circle cx="198" cy="116" r="64" fill="#4D2938" stroke="#FF8FB2"/>
    <text class="n" x="198" y="122" text-anchor="middle">Review</text>

    <circle cx="0" cy="230" r="64" fill="#58461F" stroke="#EDB472"/>
    <text class="n" x="0" y="236" text-anchor="middle">Tune</text>

    <circle cx="-198" cy="116" r="64" fill="#58461F" stroke="#EDB472"/>
    <text class="n" x="-198" y="122" text-anchor="middle">Release</text>

    <circle cx="-198" cy="-116" r="64" fill="#153C64" stroke="#66B2F0"/>
    <text class="n" x="-198" y="-110" text-anchor="middle">Monitor</text>

    <path d="M55 -215 C110 -190,145 -165,165 -145" stroke="#C9EBFF" stroke-width="3" fill="none" marker-end="url(#arr)"/>
    <path d="M230 -60 L230 60" stroke="#C9EBFF" stroke-width="3" marker-end="url(#arr)"/>
    <path d="M165 145 C130 180,90 205,40 220" stroke="#C9EBFF" stroke-width="3" fill="none" marker-end="url(#arr)"/>
    <path d="M-40 220 C-90 205,-130 180,-165 145" stroke="#C9EBFF" stroke-width="3" fill="none" marker-end="url(#arr)"/>
    <path d="M-230 60 L-230 -60" stroke="#C9EBFF" stroke-width="3" marker-end="url(#arr)"/>
    <path d="M-165 -145 C-130 -180,-90 -205,-40 -220" stroke="#C9EBFF" stroke-width="3" fill="none" marker-end="url(#arr)"/>
  </g>

  <text class="s" x="720" y="812" text-anchor="middle">Purpose: keep quality and safety rising while deployment velocity remains operationally stable.</text>
</svg>
